<svg xmlns="http://www.w3.org/2000/svg" viewBox="0 0 512 512" fill="none">
  <rect width="512" height="512" rx="96" fill="#065F46"/>
  <rect x="86" y="86" width="340" height="340" rx="36" fill="#ECFDF5"/>
  <g fill="#10B981">
    <rect x="118" y="118" width="84" height="84" rx="16"/>
    <rect x="310" y="118" width="84" height="84" rx="16"/>
    <rect x="214" y="214" width="84" height="84" rx="16"/>
    <rect x="118" y="310" width="84" height="84" rx="16"/>
    <rect x="310" y="310" width="84" height="84" rx="16"/>
  </g>
  <g fill="#A7F3D0">
    <rect x="214" y="118" width="84" height="84" rx="16"/>
    <rect x="118" y="214" width="84" height="84" rx="16"/>
    <rect x="310" y="214" width="84" height="84" rx="16"/>
    <rect x="214" y="310" width="84" height="84" rx="16"/>
  </g>
  <g stroke="#ECFDF5" stroke-width="20" stroke-linecap="round">
    <path d="M150 160 L170 180 L196 140"/>
    <path d="M342 160 L362 180 L388 140"/>
    <path d="M246 256 L266 276 L292 236"/>
    <path d="M150 352 L170 372 L196 332"/>
    <path d="M342 352 L362 372 L388 332"/>
  </g>
</svg>
